<svg width="100" height="100" viewBox="0 0 100 100" fill="none" xmlns="http://www.w3.org/2000/svg">
    <rect width="100" height="100" fill="#282828"/>
    <path d="M44.44 59.88C44.44 64.2533 42.4667 67.9333 38.52 70.92C34.5733 73.8533 30.04 75.32 24.92 75.32C19.8533 75.32 15.6667 74.0133 12.36 71.4C9.05333 68.7333 7.4 66.2267 7.4 63.88C7.4 62.28 7.88 61.48 8.84 61.48C9.69333 61.48 11.3733 62.76 13.88 65.32C14.84 66.2267 16.12 67.08 17.72 67.88C19.3733 68.68 21.1067 69.08 22.92 69.08C26.6533 69.08 29.96 68.12 32.84 66.2C35.7733 64.28 37.24 62.2 37.24 59.96C37.24 58.52 36.28 56.68 34.36 54.44C32.44 52.2 30.3067 50.0933 27.96 48.12C25.6667 46.0933 23.56 43.9333 21.64 41.64C19.72 39.3467 18.76 37.5333 18.76 36.2C18.76 34.8667 19.0267 33.4533 19.56 31.96C20.0933 30.4667 20.68 29.3733 21.32 28.68C23.4 26.3867 26.6267 24.28 31 22.36C35.4267 20.44 39.1333 19.48 42.12 19.48C43.6667 19.48 44.9733 19.9867 46.04 21C47.1067 22.0133 47.64 23.08 47.64 24.2C47.64 24.7333 47.08 25.16 45.96 25.48C44.84 25.8 43.1333 26.2267 40.84 26.76C38.6 27.24 36.6 27.8267 34.84 28.52C28.7067 30.8667 25.64 33.1333 25.64 35.32C25.64 36.4933 28.76 39.7733 35 45.16C37.4 47.24 39.56 49.6667 41.48 52.44C43.4533 55.16 44.44 57.64 44.44 59.88ZM86.94 59.88C86.94 64.2533 84.9667 67.9333 81.02 70.92C77.0733 73.8533 72.54 75.32 67.42 75.32C62.3533 75.32 58.1667 74.0133 54.86 71.4C51.5533 68.7333 49.9 66.2267 49.9 63.88C49.9 62.28 50.38 61.48 51.34 61.48C52.1933 61.48 53.8733 62.76 56.38 65.32C57.34 66.2267 58.62 67.08 60.22 67.88C61.8733 68.68 63.6067 69.08 65.42 69.08C69.1533 69.08 72.46 68.12 75.34 66.2C78.2733 64.28 79.74 62.2 79.74 59.96C79.74 58.52 78.78 56.68 76.86 54.44C74.94 52.2 72.8067 50.0933 70.46 48.12C68.1667 46.0933 66.06 43.9333 64.14 41.64C62.22 39.3467 61.26 37.5333 61.26 36.2C61.26 34.8667 61.5267 33.4533 62.06 31.96C62.5933 30.4667 63.18 29.3733 63.82 28.68C65.9 26.3867 69.1267 24.28 73.5 22.36C77.9267 20.44 81.6333 19.48 84.62 19.48C86.1667 19.48 87.4733 19.9867 88.54 21C89.6067 22.0133 90.14 23.08 90.14 24.2C90.14 24.7333 89.58 25.16 88.46 25.48C87.34 25.8 85.6333 26.2267 83.34 26.76C81.1 27.24 79.1 27.8267 77.34 28.52C71.2067 30.8667 68.14 33.1333 68.14 35.32C68.14 36.4933 71.26 39.7733 77.5 45.16C79.9 47.24 82.06 49.6667 83.98 52.44C85.9533 55.16 86.94 57.64 86.94 59.88Z" fill="#D59EFF"/>
</svg>

