<svg width="100" height="128" viewBox="0 0 100 128" fill="none" xmlns="http://www.w3.org/2000/svg">
    <rect y="8" width="100" height="100" fill="#F5F5F5" fill-opacity="0.960784"/>
    <path d="M44.44 67.88C44.44 72.2533 42.4667 75.9333 38.52 78.92C34.5733 81.8533 30.04 83.32 24.92 83.32C19.8533 83.32 15.6667 82.0133 12.36 79.4C9.05333 76.7333 7.4 74.2267 7.4 71.88C7.4 70.28 7.88 69.48 8.84 69.48C9.69333 69.48 11.3733 70.76 13.88 73.32C14.84 74.2267 16.12 75.08 17.72 75.88C19.3733 76.68 21.1067 77.08 22.92 77.08C26.6533 77.08 29.96 76.12 32.84 74.2C35.7733 72.28 37.24 70.2 37.24 67.96C37.24 66.52 36.28 64.68 34.36 62.44C32.44 60.2 30.3067 58.0933 27.96 56.12C25.6667 54.0933 23.56 51.9333 21.64 49.64C19.72 47.3467 18.76 45.5333 18.76 44.2C18.76 42.8667 19.0267 41.4533 19.56 39.96C20.0933 38.4667 20.68 37.3733 21.32 36.68C23.4 34.3867 26.6267 32.28 31 30.36C35.4267 28.44 39.1333 27.48 42.12 27.48C43.6667 27.48 44.9733 27.9867 46.04 29C47.1067 30.0133 47.64 31.08 47.64 32.2C47.64 32.7333 47.08 33.16 45.96 33.48C44.84 33.8 43.1333 34.2267 40.84 34.76C38.6 35.24 36.6 35.8267 34.84 36.52C28.7067 38.8667 25.64 41.1333 25.64 43.32C25.64 44.4933 28.76 47.7733 35 53.16C37.4 55.24 39.56 57.6667 41.48 60.44C43.4533 63.16 44.44 65.64 44.44 67.88ZM86.94 67.88C86.94 72.2533 84.9667 75.9333 81.02 78.92C77.0733 81.8533 72.54 83.32 67.42 83.32C62.3533 83.32 58.1667 82.0133 54.86 79.4C51.5533 76.7333 49.9 74.2267 49.9 71.88C49.9 70.28 50.38 69.48 51.34 69.48C52.1933 69.48 53.8733 70.76 56.38 73.32C57.34 74.2267 58.62 75.08 60.22 75.88C61.8733 76.68 63.6067 77.08 65.42 77.08C69.1533 77.08 72.46 76.12 75.34 74.2C78.2733 72.28 79.74 70.2 79.74 67.96C79.74 66.52 78.78 64.68 76.86 62.44C74.94 60.2 72.8067 58.0933 70.46 56.12C68.1667 54.0933 66.06 51.9333 64.14 49.64C62.22 47.3467 61.26 45.5333 61.26 44.2C61.26 42.8667 61.5267 41.4533 62.06 39.96C62.5933 38.4667 63.18 37.3733 63.82 36.68C65.9 34.3867 69.1267 32.28 73.5 30.36C77.9267 28.44 81.6333 27.48 84.62 27.48C86.1667 27.48 87.4733 27.9867 88.54 29C89.6067 30.0133 90.14 31.08 90.14 32.2C90.14 32.7333 89.58 33.16 88.46 33.48C87.34 33.8 85.6333 34.2267 83.34 34.76C81.1 35.24 79.1 35.8267 77.34 36.52C71.2067 38.8667 68.14 41.1333 68.14 43.32C68.14 44.4933 71.26 47.7733 77.5 53.16C79.9 55.24 82.06 57.6667 83.98 60.44C85.9533 63.16 86.94 65.64 86.94 67.88Z" fill="#7400CC"/>
</svg>
